<svg width="34" height="34" viewBox="0 0 34 34" fill="none" xmlns="http://www.w3.org/2000/svg">
<rect x="0.75" y="0.75" width="32.5" height="32.5" rx="16.25" stroke="#FFBA0A" stroke-width="1.5"/>
<path d="M13.1136 13.8635C13.1116 13.9092 13.1191 13.9549 13.1354 13.9977C13.1518 14.0404 13.1767 14.0794 13.2087 14.1122C13.2407 14.145 13.279 14.1709 13.3214 14.1883C13.3637 14.2057 13.4092 14.2142 13.455 14.2134H14.6237C14.8192 14.2134 14.9751 14.0533 15.0006 13.8592C15.1281 12.9299 15.7656 12.2528 16.9017 12.2528C17.8736 12.2528 18.7632 12.7387 18.7632 13.9074C18.7632 14.807 18.2334 15.2207 17.3962 15.8497C16.4427 16.5424 15.6877 17.3513 15.7415 18.6646L15.7457 18.972C15.7472 19.0649 15.7852 19.1536 15.8515 19.2188C15.9177 19.284 16.007 19.3205 16.0999 19.3205H17.2488C17.3428 19.3205 17.4328 19.2832 17.4993 19.2168C17.5657 19.1503 17.603 19.0603 17.603 18.9663V18.8176C17.603 17.8004 17.9897 17.5043 19.0338 16.7124C19.8966 16.0565 20.7962 15.3283 20.7962 13.7997C20.7962 11.6592 18.9885 10.625 17.0094 10.625C15.2145 10.625 13.2482 11.4608 13.1136 13.8635ZM15.3193 22.0277C15.3193 22.7828 15.9214 23.341 16.7502 23.341C17.6129 23.341 18.2065 22.7828 18.2065 22.0277C18.2065 21.2457 17.6115 20.6961 16.7487 20.6961C15.9214 20.6961 15.3193 21.2457 15.3193 22.0277Z" fill="black"/>
</svg>
