<svg width="307" height="50" viewBox="0 0 307 50" fill="none" xmlns="http://www.w3.org/2000/svg">
<path d="M208.672 41.1008C209.228 41.1008 209.726 41.2236 210.167 41.4691C210.607 41.7147 210.95 42.0577 211.196 42.4982C211.448 42.9387 211.575 43.4478 211.575 44.0255C211.575 44.6032 211.448 45.1159 211.196 45.5637C210.95 46.0042 210.607 46.3472 210.167 46.5927C209.726 46.8382 209.228 46.961 208.672 46.961C208.246 46.961 207.856 46.878 207.502 46.7119C207.148 46.5458 206.856 46.3039 206.624 45.9861V46.896H205.628V38.8586H206.668V42.0216C206.899 41.7183 207.188 41.4908 207.534 41.3391C207.881 41.1803 208.26 41.1008 208.672 41.1008ZM208.585 46.0511C208.953 46.0511 209.282 45.9681 209.571 45.802C209.867 45.6287 210.098 45.3903 210.264 45.0871C210.437 44.7765 210.524 44.4227 210.524 44.0255C210.524 43.6283 210.437 43.2781 210.264 42.9748C210.098 42.6643 209.867 42.426 209.571 42.2599C209.282 42.0938 208.953 42.0107 208.585 42.0107C208.224 42.0107 207.895 42.0938 207.599 42.2599C207.303 42.426 207.072 42.6643 206.906 42.9748C206.74 43.2781 206.657 43.6283 206.657 44.0255C206.657 44.4227 206.74 44.7765 206.906 45.0871C207.072 45.3903 207.303 45.6287 207.599 45.802C207.895 45.9681 208.224 46.0511 208.585 46.0511Z" fill="#FFBA0A"/>
<path d="M217.933 41.155L215.149 47.4701C214.904 48.055 214.615 48.4667 214.283 48.705C213.958 48.9433 213.564 49.0624 213.102 49.0624C212.82 49.0624 212.546 49.0155 212.279 48.9216C212.019 48.835 211.802 48.705 211.629 48.5317L212.073 47.7517C212.369 48.0334 212.712 48.1742 213.102 48.1742C213.355 48.1742 213.564 48.1056 213.73 47.9684C213.904 47.8384 214.059 47.6109 214.196 47.286L214.38 46.8852L211.845 41.155H212.929L214.933 45.7478L216.915 41.155H217.933Z" fill="#FFBA0A"/>
<path d="M221.964 39.3135H225.16C225.961 39.3135 226.673 39.4724 227.294 39.7901C227.915 40.1079 228.395 40.5556 228.734 41.1333C229.081 41.7038 229.254 42.361 229.254 43.1048C229.254 43.8486 229.081 44.5093 228.734 45.0871C228.395 45.6575 227.915 46.1017 227.294 46.4194C226.673 46.7371 225.961 46.896 225.16 46.896H221.964V39.3135ZM225.095 45.9536C225.709 45.9536 226.247 45.8345 226.709 45.5962C227.178 45.3579 227.539 45.0257 227.792 44.5996C228.045 44.1663 228.171 43.668 228.171 43.1048C228.171 42.5415 228.045 42.0468 227.792 41.6208C227.539 41.1875 227.178 40.8517 226.709 40.6134C226.247 40.3751 225.709 40.2559 225.095 40.2559H223.047V45.9536H225.095Z" fill="#FFBA0A"/>
<path d="M235.95 44.058C235.95 44.1374 235.943 44.2421 235.929 44.3721H231.271C231.336 44.8776 231.556 45.2856 231.932 45.5962C232.314 45.8995 232.787 46.0511 233.351 46.0511C234.037 46.0511 234.589 45.82 235.008 45.3579L235.582 46.0294C235.322 46.3327 234.997 46.5638 234.607 46.7227C234.224 46.8816 233.795 46.961 233.318 46.961C232.712 46.961 232.174 46.8382 231.704 46.5927C231.235 46.34 230.87 45.9897 230.61 45.542C230.357 45.0943 230.231 44.5888 230.231 44.0255C230.231 43.4695 230.354 42.9676 230.599 42.5198C230.852 42.0721 231.195 41.7255 231.628 41.48C232.069 41.2272 232.564 41.1008 233.112 41.1008C233.661 41.1008 234.149 41.2272 234.575 41.48C235.008 41.7255 235.344 42.0721 235.582 42.5198C235.828 42.9676 235.95 43.4803 235.95 44.058ZM233.112 41.9782C232.614 41.9782 232.195 42.1299 231.856 42.4332C231.524 42.7365 231.329 43.1337 231.271 43.6247H234.954C234.896 43.1409 234.697 42.7473 234.358 42.444C234.026 42.1335 233.611 41.9782 233.112 41.9782Z" fill="#FFBA0A"/>
<path d="M240.46 41.1008C241.189 41.1008 241.767 41.3139 242.193 41.7399C242.626 42.1588 242.843 42.7762 242.843 43.5922V46.896H241.803V43.7114C241.803 43.1553 241.669 42.7365 241.402 42.4548C241.135 42.1732 240.752 42.0324 240.254 42.0324C239.691 42.0324 239.247 42.1985 238.922 42.5307C238.597 42.8556 238.434 43.325 238.434 43.9388V46.896H237.394V41.155H238.391V42.0216C238.6 41.7255 238.882 41.498 239.236 41.3391C239.597 41.1803 240.005 41.1008 240.46 41.1008Z" fill="#FFBA0A"/>
<path d="M250.291 41.155V46.1161C250.291 47.1199 250.042 47.8601 249.544 48.3367C249.045 48.8205 248.301 49.0624 247.312 49.0624C246.771 49.0624 246.254 48.9866 245.763 48.835C245.272 48.6905 244.875 48.4811 244.572 48.2067L245.07 47.4051C245.337 47.6362 245.666 47.8167 246.056 47.9467C246.453 48.0839 246.861 48.1525 247.28 48.1525C247.951 48.1525 248.446 47.9937 248.764 47.6759C249.089 47.3582 249.251 46.8743 249.251 46.2244V45.7695C249.006 46.0656 248.702 46.2894 248.341 46.4411C247.987 46.5855 247.601 46.6577 247.182 46.6577C246.633 46.6577 246.135 46.5422 245.687 46.3111C245.247 46.0728 244.9 45.7442 244.647 45.3254C244.395 44.8993 244.268 44.4155 244.268 43.8739C244.268 43.3322 244.395 42.852 244.647 42.4332C244.9 42.0071 245.247 41.6785 245.687 41.4475C246.135 41.2164 246.633 41.1008 247.182 41.1008C247.615 41.1008 248.016 41.1803 248.385 41.3391C248.76 41.498 249.067 41.7327 249.305 42.0432V41.155H250.291ZM247.301 45.7478C247.677 45.7478 248.013 45.6684 248.309 45.5095C248.612 45.3506 248.847 45.1304 249.013 44.8487C249.186 44.5599 249.273 44.2349 249.273 43.8739C249.273 43.3178 249.089 42.8701 248.72 42.5307C248.352 42.184 247.879 42.0107 247.301 42.0107C246.716 42.0107 246.24 42.184 245.871 42.5307C245.503 42.8701 245.319 43.3178 245.319 43.8739C245.319 44.2349 245.402 44.5599 245.568 44.8487C245.741 45.1304 245.976 45.3506 246.272 45.5095C246.576 45.6684 246.919 45.7478 247.301 45.7478Z" fill="#FFBA0A"/>
<path d="M252.278 38.8586H253.318V46.896H252.278V38.8586Z" fill="#FFBA0A"/>
<path d="M255.303 41.155H256.343V46.896H255.303V41.155ZM255.823 40.0501C255.621 40.0501 255.451 39.9851 255.314 39.8551C255.184 39.7252 255.119 39.5663 255.119 39.3785C255.119 39.1908 255.184 39.0319 255.314 38.9019C255.451 38.7647 255.621 38.6961 255.823 38.6961C256.025 38.6961 256.191 38.7611 256.321 38.8911C256.459 39.0138 256.527 39.1691 256.527 39.3569C256.527 39.5518 256.459 39.7179 256.321 39.8551C256.191 39.9851 256.025 40.0501 255.823 40.0501Z" fill="#FFBA0A"/>
<path d="M259.975 46.961C259.506 46.961 259.054 46.8996 258.621 46.7769C258.188 46.6469 257.848 46.4844 257.603 46.2894L258.036 45.4662C258.289 45.6467 258.596 45.7911 258.957 45.8995C259.318 46.0078 259.683 46.0619 260.051 46.0619C260.961 46.0619 261.416 45.802 261.416 45.282C261.416 45.1087 261.354 44.9715 261.232 44.8704C261.109 44.7693 260.954 44.6971 260.766 44.6538C260.585 44.6032 260.325 44.5491 259.986 44.4913C259.524 44.4191 259.145 44.336 258.849 44.2421C258.56 44.1483 258.311 43.9894 258.101 43.7655C257.892 43.5417 257.787 43.2275 257.787 42.8231C257.787 42.3032 258.004 41.888 258.437 41.5774C258.87 41.2597 259.452 41.1008 260.181 41.1008C260.564 41.1008 260.946 41.1478 261.329 41.2417C261.712 41.3355 262.026 41.4619 262.272 41.6208L261.827 42.444C261.358 42.1407 260.806 41.9891 260.17 41.9891C259.73 41.9891 259.394 42.0613 259.163 42.2057C258.932 42.3501 258.816 42.5415 258.816 42.7798C258.816 42.9676 258.881 43.1156 259.011 43.2239C259.141 43.3322 259.3 43.4117 259.488 43.4622C259.683 43.5128 259.953 43.5706 260.3 43.6355C260.762 43.715 261.134 43.8016 261.416 43.8955C261.705 43.9822 261.95 44.1338 262.152 44.3505C262.355 44.5671 262.456 44.8704 262.456 45.2604C262.456 45.7803 262.232 46.1955 261.784 46.5061C261.344 46.8094 260.741 46.961 259.975 46.961Z" fill="#FFBA0A"/>
<path d="M266.257 46.961C265.673 46.961 265.149 46.8346 264.687 46.5819C264.232 46.3291 263.874 45.9825 263.614 45.542C263.354 45.0943 263.224 44.5888 263.224 44.0255C263.224 43.4622 263.354 42.9603 263.614 42.5198C263.874 42.0721 264.232 41.7255 264.687 41.48C265.149 41.2272 265.673 41.1008 266.257 41.1008C266.777 41.1008 267.24 41.2055 267.644 41.415C268.056 41.6244 268.373 41.9277 268.597 42.3249L267.806 42.834C267.626 42.5596 267.402 42.3537 267.135 42.2165C266.868 42.0793 266.572 42.0107 266.247 42.0107C265.871 42.0107 265.532 42.0938 265.228 42.2599C264.932 42.426 264.698 42.6643 264.524 42.9748C264.358 43.2781 264.275 43.6283 264.275 44.0255C264.275 44.4299 264.358 44.7874 264.524 45.0979C264.698 45.4012 264.932 45.6359 265.228 45.802C265.532 45.9681 265.871 46.0511 266.247 46.0511C266.572 46.0511 266.868 45.9825 267.135 45.8453C267.402 45.7081 267.626 45.5023 267.806 45.2279L268.597 45.7261C268.373 46.1233 268.056 46.4302 267.644 46.6469C267.24 46.8563 266.777 46.961 266.257 46.961Z" fill="#FFBA0A"/>
<path d="M272.935 41.1008C273.664 41.1008 274.242 41.3139 274.668 41.7399C275.101 42.1588 275.318 42.7762 275.318 43.5922V46.896H274.278V43.7114C274.278 43.1553 274.145 42.7365 273.877 42.4548C273.61 42.1732 273.227 42.0324 272.729 42.0324C272.166 42.0324 271.722 42.1985 271.397 42.5307C271.072 42.8556 270.909 43.325 270.909 43.9388V46.896H269.869V38.8586H270.909V41.9674C271.126 41.693 271.408 41.48 271.754 41.3283C272.108 41.1767 272.502 41.1008 272.935 41.1008Z" fill="#FFBA0A"/>
<path d="M280.303 39.3135H283.499C284.3 39.3135 285.011 39.4724 285.633 39.7901C286.254 40.1079 286.734 40.5556 287.073 41.1333C287.42 41.7038 287.593 42.361 287.593 43.1048C287.593 43.8486 287.42 44.5093 287.073 45.0871C286.734 45.6575 286.254 46.1017 285.633 46.4194C285.011 46.7371 284.3 46.896 283.499 46.896H280.303V39.3135ZM283.434 45.9536C284.047 45.9536 284.585 45.8345 285.048 45.5962C285.517 45.3579 285.878 45.0257 286.131 44.5996C286.384 44.1663 286.51 43.668 286.51 43.1048C286.51 42.5415 286.384 42.0468 286.131 41.6208C285.878 41.1875 285.517 40.8517 285.048 40.6134C284.585 40.3751 284.047 40.2559 283.434 40.2559H281.386V45.9536H283.434Z" fill="#FFBA0A"/>
<path d="M291.56 46.961C290.989 46.961 290.476 46.8346 290.021 46.5819C289.566 46.3291 289.209 45.9825 288.949 45.542C288.696 45.0943 288.57 44.5888 288.57 44.0255C288.57 43.4622 288.696 42.9603 288.949 42.5198C289.209 42.0721 289.566 41.7255 290.021 41.48C290.476 41.2272 290.989 41.1008 291.56 41.1008C292.13 41.1008 292.639 41.2272 293.087 41.48C293.542 41.7255 293.896 42.0721 294.148 42.5198C294.408 42.9603 294.538 43.4622 294.538 44.0255C294.538 44.5888 294.408 45.0943 294.148 45.542C293.896 45.9825 293.542 46.3291 293.087 46.5819C292.639 46.8346 292.13 46.961 291.56 46.961ZM291.56 46.0511C291.928 46.0511 292.256 45.9681 292.545 45.802C292.841 45.6287 293.072 45.3903 293.239 45.0871C293.405 44.7765 293.488 44.4227 293.488 44.0255C293.488 43.6283 293.405 43.2781 293.239 42.9748C293.072 42.6643 292.841 42.426 292.545 42.2599C292.256 42.0938 291.928 42.0107 291.56 42.0107C291.191 42.0107 290.859 42.0938 290.563 42.2599C290.274 42.426 290.043 42.6643 289.87 42.9748C289.704 43.2781 289.621 43.6283 289.621 44.0255C289.621 44.4227 289.704 44.7765 289.87 45.0871C290.043 45.3903 290.274 45.6287 290.563 45.802C290.859 45.9681 291.191 46.0511 291.56 46.0511Z" fill="#FFBA0A"/>
<path d="M298.479 46.961C297.894 46.961 297.37 46.8346 296.908 46.5819C296.453 46.3291 296.096 45.9825 295.836 45.542C295.576 45.0943 295.446 44.5888 295.446 44.0255C295.446 43.4622 295.576 42.9603 295.836 42.5198C296.096 42.0721 296.453 41.7255 296.908 41.48C297.37 41.2272 297.894 41.1008 298.479 41.1008C298.999 41.1008 299.461 41.2055 299.865 41.415C300.277 41.6244 300.595 41.9277 300.818 42.3249L300.028 42.834C299.847 42.5596 299.623 42.3537 299.356 42.2165C299.089 42.0793 298.793 42.0107 298.468 42.0107C298.092 42.0107 297.753 42.0938 297.45 42.2599C297.154 42.426 296.919 42.6643 296.746 42.9748C296.58 43.2781 296.496 43.6283 296.496 44.0255C296.496 44.4299 296.58 44.7874 296.746 45.0979C296.919 45.4012 297.154 45.6359 297.45 45.802C297.753 45.9681 298.092 46.0511 298.468 46.0511C298.793 46.0511 299.089 45.9825 299.356 45.8453C299.623 45.7081 299.847 45.5023 300.028 45.2279L300.818 45.7261C300.595 46.1233 300.277 46.4302 299.865 46.6469C299.461 46.8563 298.999 46.961 298.479 46.961Z" fill="#FFBA0A"/>
<path d="M303.811 46.961C303.342 46.961 302.891 46.8996 302.457 46.7769C302.024 46.6469 301.685 46.4844 301.439 46.2894L301.872 45.4662C302.125 45.6467 302.432 45.7911 302.793 45.8995C303.154 46.0078 303.519 46.0619 303.887 46.0619C304.797 46.0619 305.252 45.802 305.252 45.282C305.252 45.1087 305.191 44.9715 305.068 44.8704C304.945 44.7693 304.79 44.6971 304.602 44.6538C304.421 44.6032 304.162 44.5491 303.822 44.4913C303.36 44.4191 302.981 44.336 302.685 44.2421C302.396 44.1483 302.147 43.9894 301.937 43.7655C301.728 43.5417 301.623 43.2275 301.623 42.8231C301.623 42.3032 301.84 41.888 302.273 41.5774C302.706 41.2597 303.288 41.1008 304.017 41.1008C304.4 41.1008 304.783 41.1478 305.165 41.2417C305.548 41.3355 305.862 41.4619 306.108 41.6208L305.664 42.444C305.194 42.1407 304.642 41.9891 304.006 41.9891C303.566 41.9891 303.23 42.0613 302.999 42.2057C302.768 42.3501 302.652 42.5415 302.652 42.7798C302.652 42.9676 302.717 43.1156 302.847 43.2239C302.977 43.3322 303.136 43.4117 303.324 43.4622C303.519 43.5128 303.79 43.5706 304.136 43.6355C304.598 43.715 304.97 43.8016 305.252 43.8955C305.541 43.9822 305.786 44.1338 305.989 44.3505C306.191 44.5671 306.292 44.8704 306.292 45.2604C306.292 45.7803 306.068 46.1955 305.62 46.5061C305.18 46.8094 304.577 46.961 303.811 46.961Z" fill="#FFBA0A"/>
<path d="M11.9651 0.543518C17.1176 0.547173 21.4939 0.741693 25.824 3.62812C30.4331 6.71271 32.3614 11.065 32.3614 16.0933C32.3614 20.5723 29.6336 31.474 14.3014 31.474H2.06572C2.01095 31.474 1.95585 31.4733 1.90072 31.4723L1.79054 31.4695C1.09374 31.446 0.427246 31.305 0.427246 30.5021C0.427246 29.8261 0.991618 29.657 1.60302 29.488C3.12544 29.0561 3.2486 28.7468 3.25168 27.646L3.25167 27.5482C3.25126 27.3819 3.24911 27.1984 3.24911 26.995V3.50135C3.24911 2.86753 2.35552 2.74077 1.74412 2.57175C1.08568 2.36047 0.474278 2.23371 0.474278 1.51538C0.474278 0.628028 1.36787 0.543518 2.12037 0.543518H11.9651ZM12.0161 2.82061C7.74753 2.82061 7.41918 3.70614 7.41918 7.16395L7.41874 24.4974C7.41874 24.5375 7.41874 24.5774 7.41874 24.6169V24.8504C7.42155 28.5654 7.59172 29.3867 12.5789 29.3867C21.7258 29.3867 27.4484 24.5373 27.4484 16.2301C27.4484 7.92298 22.5701 2.82061 12.0161 2.82061Z" fill="black"/>
<path d="M71.9268 31.425L72.0096 31.42C72.1342 31.4122 72.2599 31.4038 72.382 31.4038H76.99C77.5395 31.4038 78.0891 31.0722 78.0891 30.4505C78.0891 29.9117 77.7087 29.7459 76.6941 29.3729C76.1022 29.1657 75.9331 28.5854 75.9331 26.3059V19.5086C75.9331 17.3534 75.7217 15.4054 74.1998 13.7475C72.8047 12.2554 70.7332 11.5094 68.7463 11.5094C65.4911 11.5094 63.335 12.6699 61.3481 15.1152C61.0522 12.7528 60.6294 11.5094 59.5725 11.5094C58.8961 11.5094 57.9238 12.3798 57.4165 12.7528C56.9937 13.0843 56.3596 13.4988 56.3596 14.1205C56.3596 14.5764 56.9515 14.7422 57.797 15.0323C58.5579 15.281 58.6848 15.9856 58.6848 17.9336V26.3059C58.6848 28.8341 58.4311 29.1657 57.5856 29.4973C56.7824 29.7874 56.4442 29.9532 56.4442 30.4505C56.4442 31.2555 57.0772 31.3807 57.707 31.4002L57.8063 31.4025C57.8558 31.4033 57.9051 31.4036 57.9539 31.4037L62.9968 31.4038C63.5887 31.4038 64.096 31.0722 64.096 30.4505C64.096 29.9117 63.6732 29.7459 62.8277 29.4558C61.9048 29.1411 61.8579 28.565 61.8555 26.6289L61.8554 26.4162C61.8554 26.3799 61.8554 26.3431 61.8554 26.3059V19.4671C61.8554 17.8507 61.94 16.6902 63.2082 15.5297C64.3919 14.4935 66.0829 13.7889 67.8585 13.7889C71.0292 13.7889 72.7624 15.5712 72.7624 18.7211V26.3059C72.7624 28.4196 72.6356 29.0828 71.9169 29.4144L71.4942 29.6216C71.1137 29.8288 70.8178 29.9946 70.8178 30.4505C70.8178 31.4359 71.3487 31.4582 71.9268 31.425Z" fill="black"/>
<path d="M90.387 11.1698C91.2999 11.1698 91.9639 11.2533 92.6279 11.2951C93.3334 11.3787 93.9973 11.4623 94.9518 11.4623L98.2617 11.4625C99.544 11.467 100.388 11.5458 100.388 12.5904C100.388 13.58 99.4197 13.6321 97.6947 13.6348L96.1138 13.635C98.0227 15.557 99.1017 17.9805 99.1017 20.78C99.1017 23.7884 97.7322 26.5044 95.4083 28.3428C97.6907 29.1785 99.9731 30.9334 99.9731 33.6076C99.9731 38.7887 93.1674 39.7498 89.2665 39.7498C85.9881 39.7498 81.3403 39.3737 81.3403 36.4489C81.3403 35.3625 82.4192 33.4822 83.5812 33.4822C83.9547 33.4822 84.1207 33.7747 84.1207 34.109C84.1207 34.4432 84.0377 34.7775 84.0377 35.1536C84.0377 36.6578 86.8181 37.4099 89.8475 37.4099C92.3374 37.4099 96.6118 37.0338 96.6118 33.6911C96.6118 31.5126 94.8709 30.5806 93.182 29.8043L93.0615 29.7491L93.0014 29.7217C91.9639 30.0977 90.8849 30.3067 89.806 30.3067C84.2867 30.3067 80.9253 26.3372 80.9253 20.9471C80.9253 15.181 84.8262 11.1698 90.387 11.1698ZM90.0557 13.198C85.9779 13.198 84.2303 17.4234 84.2303 20.9376C84.2303 24.2845 85.8115 28.1334 89.6812 28.1334C94.0918 28.1334 95.7978 24.5355 95.7978 20.6029C95.7978 17.0051 94.1751 13.198 90.0557 13.198Z" fill="black"/>
<path d="M109.935 31.474C110.538 31.474 110.968 31.1351 110.968 30.4996C110.968 29.9489 110.538 29.7795 109.763 29.4829C108.824 29.1613 108.776 28.5724 108.773 26.5935L108.773 2.32278L108.773 2.26741L108.773 2.15621L108.772 2.0448C108.761 1.28392 108.666 0.543518 107.783 0.543518C106.965 0.543518 104.856 1.43315 104.082 1.85678C103.694 2.0686 103.221 2.23805 103.221 2.74641C103.221 3.12768 103.608 3.29713 103.91 3.38186C103.978 3.40657 104.046 3.4304 104.114 3.45413L104.215 3.48975C104.919 3.73996 105.545 4.02261 105.545 5.24585V26.2633C105.545 28.8475 105.287 29.1864 104.426 29.5253C103.78 29.8218 103.436 29.9913 103.436 30.4996C103.436 31.3854 104.041 31.4659 104.701 31.4733L104.8 31.474H109.935Z" fill="black"/>
<path d="M179.516 31.4605C179.641 31.4526 179.767 31.444 179.889 31.444H184.506C185.057 31.444 185.608 31.1054 185.608 30.4706C185.608 29.9204 185.226 29.7511 184.21 29.3701C183.617 29.1585 183.447 28.566 183.447 26.2382V19.357C183.447 17.1562 183.235 15.1669 181.71 13.474C180.313 11.9503 178.237 11.1885 176.246 11.1885C173.705 11.1885 171.205 12.162 169.342 13.9396L169.341 2.1547L169.34 2.04339C169.33 1.28322 169.236 0.543518 168.367 0.543518C167.562 0.543518 165.487 1.43232 164.724 1.85555C164.343 2.06717 163.877 2.23647 163.877 2.74435C163.877 3.12526 164.258 3.29456 164.555 3.37921C164.622 3.40389 164.689 3.4277 164.756 3.45141L164.855 3.487C165.548 3.73697 166.165 4.01935 166.165 5.24145V26.2382C166.165 28.8199 165.91 29.1585 165.063 29.4971C164.258 29.7934 163.92 29.9627 163.92 30.4706C163.92 31.2926 164.554 31.4205 165.185 31.4403L165.284 31.4427C165.334 31.4435 165.383 31.4438 165.432 31.4439L170.485 31.444C171.078 31.444 171.587 31.1054 171.587 30.4706C171.587 29.9204 171.163 29.7511 170.316 29.4548C169.391 29.1334 169.344 28.5451 169.342 26.5681L169.342 26.3509C169.342 26.3138 169.342 26.2762 169.342 26.2382V16.225C171.163 14.4898 172.857 13.5163 175.441 13.5163C178.534 13.5163 180.27 15.3362 180.27 18.5528V26.2382C180.27 28.3967 180.143 29.0739 179.423 29.4125L179 29.6241C178.618 29.8357 178.322 30.005 178.322 30.4706C178.322 31.4767 178.854 31.4995 179.433 31.4656L179.516 31.4605Z" fill="black"/>
<path d="M116.846 9.32615C118.147 9.32615 119.066 8.47264 119.066 7.11479C119.066 5.95092 118.147 5.09741 116.999 5.09741C115.812 5.09741 114.855 5.95092 114.855 7.19238C114.855 8.35626 115.659 9.32615 116.846 9.32615Z" fill="black"/>
<path d="M121.172 30.6442C121.172 30.0943 120.784 29.9372 120.164 29.7015C119.233 29.348 119.194 28.916 119.194 26.6772V17.0554C119.194 12.5385 118.701 12.1772 118.17 12.1483L118.135 12.1468C118.118 12.1463 118.1 12.146 118.083 12.1458H118.03C117.565 12.1458 116.673 12.6171 116.246 12.8135C113.958 13.874 113.803 14.1489 113.803 14.6202C113.803 15.0915 114.268 15.2487 114.85 15.3665C116.212 15.6275 116.281 16.6669 116.285 18.1825L116.285 18.3467C116.285 18.3743 116.285 18.4022 116.285 18.4301V27.2663C116.285 28.8767 116.246 29.4659 114.928 29.8194C114.501 29.9372 114.191 30.1336 114.191 30.6442C114.191 31.4101 114.854 31.5039 115.463 31.5083H119.892C120.59 31.5083 121.172 31.4297 121.172 30.6442Z" fill="black"/>
<path d="M152.73 31.5068C155.501 31.5068 157.395 30.6067 159.242 29.1338C159.888 28.6019 161.042 27.4972 161.042 26.6789C161.042 26.2288 160.719 25.9424 160.257 25.9424C159.565 25.9424 159.149 26.4743 158.78 26.8835C157.395 28.3564 155.454 29.1338 153.33 29.1338C148.851 29.1338 145.628 26.2851 145.628 21.6874C145.628 17.0896 148.667 13.259 152.776 13.259C157.348 13.259 156.563 16.7997 159.242 16.7997C160.119 16.7997 160.863 15.9384 160.812 15.2041C160.676 13.259 157.926 11.6129 153.746 11.2542C151.353 11.0488 150.559 11.2372 149.29 11.6129C148.021 11.9887 147.223 12.466 146.262 13.1884C143.601 15.1899 142.525 18.2897 142.525 21.6874C142.525 27.129 146.312 31.5068 152.73 31.5068Z" fill="black"/>
<path d="M44.9438 11.3599C47.1738 11.3599 49.1278 12.0601 50.8056 13.4816C52.4622 14.9032 53.2905 16.834 53.2905 19.2316C53.2905 21.4594 52.2711 22.5839 50.211 22.5627L49.606 22.5626C49.5753 22.5626 49.5443 22.5626 49.5131 22.5626L49.3223 22.5625C48.1907 22.5617 46.7278 22.558 44.9438 22.5415C43.2378 22.5257 42.0753 22.5217 40.943 22.5206L40.7434 22.5205C40.7101 22.5205 40.6769 22.5204 40.6436 22.5204L40.3436 22.5203L39.79 22.5203C38.9192 22.5203 38.5369 22.9446 38.6219 23.7933C38.7918 25.0876 39.4502 26.3394 40.6183 27.5064C41.2636 28.151 42.369 28.9536 43.0388 29.143C43.5667 29.3588 45.212 29.578 45.8774 29.5045C47.4467 29.5045 49.9164 28.531 51.2717 27.038C51.6329 26.6236 52.0379 26.0859 52.7283 26.0738C53.1886 26.0657 53.5158 26.3457 53.5237 26.7945C53.5377 27.6105 52.4062 28.7323 51.771 29.274C49.9554 30.775 48.2276 31.6063 44.9617 31.6063C43.952 31.6063 43.0534 31.4859 42.2558 31.2614L42.1535 31.2316C40.5254 30.8057 39.1081 29.965 37.9138 28.7158C36.1086 26.8274 35.1953 24.3874 35.1953 21.4382C35.1953 18.489 36.1086 16.0702 37.9351 14.1818C39.7616 12.2935 42.0978 11.3599 44.9438 11.3599ZM45.1343 13.5741C43.4169 13.5529 41.9421 14.0832 40.7096 15.1652C39.4772 16.2683 38.8509 17.52 38.8509 18.899C38.8509 19.3657 39.0327 19.7051 39.3762 19.896C39.7197 20.1082 40.4268 20.2143 41.538 20.2143H49.6801C50.266 20.2143 50.5488 19.79 50.5488 18.9414C50.5488 17.3715 50.0639 16.0986 49.0942 15.1015C48.1042 14.1045 46.791 13.5953 45.1343 13.5741Z" fill="black"/>
<path d="M131.977 31.4735C136.373 31.4735 139.688 28.5885 139.688 24.9315C139.688 19.1491 127.834 20.7056 127.834 16.1953C127.834 14.1636 130.198 13.2697 132.278 13.2697C136.486 13.2697 136.649 16.1953 138.021 16.1953C138.824 16.1953 138.635 14.7731 138.635 14.3668C138.635 13.4728 138.588 12.9852 137.69 12.5383C135.893 11.6443 134.831 11.3599 132.799 11.3599C128.023 11.3599 124.856 14.0417 124.856 17.1705C124.856 24.5252 136.457 20.99 136.457 26.1505C136.457 28.3853 134.831 29.5231 132.562 29.5231C131.427 29.5231 130.224 29.3684 129.042 28.8808C127.043 28.1911 127.485 26.1505 125.187 26.0286C124.526 25.9935 124.005 26.6787 124.005 27.207C124.005 29.645 128.525 31.4735 131.977 31.4735Z" fill="black"/>
<path d="M247.945 11.1966C253.426 11.1966 258.014 15.6265 258.014 21.205C258.014 27.0707 253.507 31.5007 247.742 31.5007C242.22 31.5007 237.795 26.9476 237.795 21.3691C237.795 15.8316 242.464 11.1966 247.945 11.1966ZM247.772 13.4116C243.04 13.4116 240.92 17.5031 240.92 21.7173C240.92 25.8906 243.163 29.6548 247.69 29.6548C251.157 29.6548 254.705 26.7089 254.705 21.3491C254.705 17.1348 252.299 13.4116 247.772 13.4116Z" fill="black"/>
<path d="M267.392 13.4105C267.241 13.5521 267.033 13.7341 266.814 13.9127C266.217 14.4009 265.691 14.1014 265.405 13.3853C265.015 12.4063 264.419 11.5617 263.827 11.5617C263.151 11.5617 262.078 12.4321 261.571 12.8051C261.148 13.1367 260.514 13.5512 260.514 14.1729C260.514 14.6288 261.106 14.7946 261.952 15.0847C262.712 15.3334 262.839 16.3459 262.839 18.2939V25.5336C262.837 26.7444 262.848 27.5109 262.836 28.0269C262.812 28.9849 261.491 29.4358 261.491 30.3941C261.491 30.3941 261.491 31.3763 262.363 31.4079H266.393C267.123 31.4079 267.622 30.9471 267.622 30.3779C267.622 30.011 267.466 29.6913 266.693 29.3909C265.921 29.0905 265.961 28.1432 265.961 25.6113V20.7915C265.961 18.8747 265.885 17.6543 266.546 16.6289C267.088 15.7876 268.036 15.3415 268.723 15.3415C269.18 15.3415 269.667 15.4846 270.182 15.7707C270.697 16.0281 271.197 16.1569 271.684 16.1569C272.284 16.1569 272.771 15.9423 273.143 15.5132C273.515 15.0841 273.701 14.5548 273.701 13.9254C273.701 13.2388 273.472 12.6809 273.014 12.2518C272.556 11.7941 271.97 11.5652 271.255 11.5652C270.024 11.5652 268.737 12.1803 267.392 13.4105Z" fill="black"/>
<path d="M277.794 26.4517C277.794 28.9424 277.549 29.269 276.732 29.5957C276.12 29.8815 275.793 30.0448 275.793 30.5348C275.793 31.4739 276.487 31.4739 277.182 31.4739H281.959C282.53 31.4739 282.939 31.1473 282.939 30.5348C282.939 30.004 282.53 29.8407 281.795 29.5548C280.856 29.2282 280.856 28.6157 280.856 26.4517V2.27955C280.856 1.46292 280.856 0.564636 279.917 0.564636C279.141 0.564636 277.141 1.42209 276.406 1.83041C276.038 2.03456 275.589 2.19789 275.589 2.68786C275.589 3.05534 275.957 3.21867 276.242 3.30033C277.018 3.58615 277.794 3.74948 277.794 5.09691V26.4517Z" fill="black"/>
<path d="M301.281 13.5908C299.528 12.4498 297.69 11.8385 295.53 11.8385C289.784 11.8385 285.582 16.851 285.582 22.3117C285.582 27.4056 289.376 32.0106 294.796 32.0106C297.323 32.0106 299.976 30.8695 301.525 28.8727C301.525 30.7065 301.525 31.3993 302.788 31.3993H304.704C305.641 31.3993 306.252 31.3585 306.252 30.462C306.252 29.973 305.926 29.81 305.559 29.6062C304.989 29.2802 304.337 28.8319 304.337 28.1799V2.26186C304.337 1.44683 304.337 0.550293 303.4 0.550293C302.625 0.550293 300.628 1.40608 299.895 1.81359C299.528 2.01735 299.08 2.18036 299.08 2.66938C299.08 3.03614 299.447 3.19915 299.732 3.28065C300.506 3.56591 301.281 3.72892 301.281 5.07373V13.5908ZM302.024 21.6038C302.024 21.8249 302.023 22.1237 302.005 22.4799C301.829 26.0746 299.21 29.6877 295.611 29.6877V29.6877C291.047 29.6877 288.842 25.7756 288.842 21.7819C288.842 18.0327 291.455 13.8353 295.734 13.8353C297.812 13.8353 302.024 14.1829 302.024 21.6038Z" fill="black"/>
<path d="M205.799 31.035C206.108 31.3476 206.748 31.5039 207.366 31.5039C208.448 31.5039 209.189 30.8474 209.591 29.5345L215.848 9.23034C216.095 8.35503 216.404 7.933 216.775 7.96427C217.146 7.96427 217.455 8.38629 217.702 9.23034L223.959 29.5345C224.361 30.8474 225.102 31.5039 226.184 31.5039C226.802 31.5039 227.427 31.3476 227.705 31.035C228.014 30.7224 228.292 30.2222 228.539 29.5345L237.097 4.63495C237.591 3.19694 238.805 1.80555 238.775 1.39915C238.744 0.507693 236.787 0.508206 235.782 0.50847L235.731 0.508478C232.985 0.508475 234.223 1.14556 234.054 2.11169L227.149 24.095C226.994 24.5639 226.824 24.8765 226.639 25.0328C226.484 25.1579 226.314 25.1423 226.129 24.986C225.944 24.8297 225.789 24.5327 225.666 24.095L218.675 1.86834C218.366 0.961763 218.022 0.508478 216.775 0.508478C215.528 0.508478 215.184 0.961763 214.875 1.86834L207.884 24.095C207.761 24.5327 207.606 24.8297 207.421 24.986C207.236 25.1423 207.05 25.1579 206.865 25.0328C206.71 24.8765 206.556 24.5639 206.401 24.095L199.496 2.11169C199.327 1.14556 200.565 0.508472 197.818 0.508472C196.83 0.508472 194.806 0.492576 194.775 1.39915C194.744 1.80554 195.959 3.19694 196.453 4.63495L205.011 29.5345C205.258 30.2222 205.521 30.7224 205.799 31.035Z" fill="black"/>
<path d="M190.56 39.8615C191.186 39.8615 191.768 39.7054 192.308 39.3931C192.848 39.0808 193.273 38.6557 193.585 38.1178C193.896 37.5798 194.052 36.997 194.052 36.3693C194.052 35.7448 193.895 35.1628 193.582 34.6233C193.269 34.0837 192.843 33.6571 192.303 33.3433C191.764 33.0294 191.182 32.8725 190.56 32.8725C189.934 32.8725 189.351 33.0287 188.811 33.3409C188.272 33.6532 187.845 34.0791 187.532 34.6186C187.219 35.1581 187.063 35.7417 187.063 36.3693C187.063 36.997 187.218 37.5806 187.53 38.1201C187.841 38.6596 188.267 39.0847 188.807 39.3954C189.346 39.7062 189.931 39.8615 190.56 39.8615ZM190.56 39.2818C189.755 39.2818 189.069 38.9981 188.501 38.4308C187.934 37.8635 187.65 37.1763 187.65 36.3693C187.65 35.5655 187.935 34.8783 188.504 34.3079C189.072 33.7375 189.758 33.4522 190.56 33.4522C191.358 33.4522 192.042 33.7375 192.611 34.3079C193.18 34.8783 193.464 35.5655 193.464 36.3693C193.464 37.1732 193.181 37.8596 192.613 38.4285C192.046 38.9974 191.361 39.2818 190.56 39.2818ZM189.769 38.2476V36.6476H190.129C190.361 36.6476 190.546 36.7102 190.684 36.8354C190.823 36.9607 191.011 37.235 191.249 37.6586L191.577 38.2476H192.317L191.864 37.5149C191.673 37.2088 191.515 36.9885 191.39 36.854C191.265 36.7195 191.132 36.6229 190.99 36.5641C191.304 36.5394 191.562 36.4281 191.762 36.2302C191.963 36.0323 192.063 35.7896 192.063 35.5021C192.063 35.3104 192.006 35.1295 191.892 34.9595C191.778 34.7894 191.626 34.6681 191.436 34.5954C191.246 34.5228 190.922 34.4864 190.462 34.4864H189.163V38.2476H189.769ZM190.509 36.1282H189.769V34.9966H190.462C190.817 34.9966 191.065 35.0383 191.205 35.1218C191.345 35.2053 191.415 35.3506 191.415 35.5577C191.415 35.7556 191.343 35.9002 191.198 35.9914C191.053 36.0826 190.823 36.1282 190.509 36.1282Z" fill="black"/>
</svg>
